<svg width="29" height="27" viewBox="0 0 29 27" fill="none" xmlns="http://www.w3.org/2000/svg">
<path d="M26.4099 0L14.5 0.00118945L2.59012 0C1.16232 0 0 1.1694 0 2.60785C0 3.00082 0.0896621 3.38196 0.265531 3.74066C2.19601 7.70312 5.43399 13.3224 8.29083 18.2808C9.78354 20.8721 11.1937 23.3194 12.2132 25.1791C12.6958 26.0583 13.5501 26.5834 14.5012 26.5834C15.4512 26.5834 16.3055 26.0583 16.7881 25.1791C17.8065 23.3206 19.2154 20.8744 20.707 18.2855C23.5649 13.3259 26.8029 7.70431 28.7346 3.74304C28.9103 3.38314 29 3.00082 29 2.60785C29 1.1694 27.8377 0 26.4099 0Z" fill="#008891"/>
</svg>
