<svg id="Calque_1" data-name="Calque 1" xmlns="http://www.w3.org/2000/svg" viewBox="0 0 12 22"><defs><style>.cls-1,.cls-2{fill:#fff;}.cls-1{fill-rule:evenodd;}</style></defs><title>Plan de travail 1</title><path class="cls-1" d="M6,.09C1.08.09,0,2.05,0,11S1.08,21.91,6,21.91,12,20,12,11,10.92.09,6,.09ZM6,1.4C2.72,1.4,2,3.13,2,11s.72,9.6,4,9.6,4-1.73,4-9.6S9.28,1.4,6,1.4Z"/><path class="cls-2 circle" d="M8,5A2.12,2.12,0,0,0,6,3,2.12,2.12,0,0,0,4,5,2.12,2.12,0,0,0,6,7,2.12,2.12,0,0,0,8,5Z"/></svg>
