<svg width="12" height="22" viewBox="0 0 12 22" fill="none" xmlns="http://www.w3.org/2000/svg">
<path fill-rule="evenodd" clip-rule="evenodd" d="M6 0.090909C1.08 0.090909 0 2.05455 0 11C0 19.9455 1.08 21.9091 6 21.9091C10.92 21.9091 12 19.9455 12 11C12 2.05455 10.92 0.090909 6 0.090909ZM6 1.4C2.72 1.4 2 3.128 2 11C2 18.872 2.72 20.6 6 20.6C9.28 20.6 10 18.872 10 11C10 3.128 9.28 1.4 6 1.4Z" fill="white"/>
<path d="M8 5C8 3.98 7.02 3 6 3C4.98 3 4 3.98 4 5C4 6.02 4.98 7 6 7C7.02 7 8 6.02 8 5Z" fill="white"/>
</svg>
