<svg width="427" height="695" viewBox="0 0 427 695" fill="none" xmlns="http://www.w3.org/2000/svg">
<g clip-path="url(#clip0)">
<path d="M427 1.52588e-05L427 695L0 695L3.03794e-05 -3.40597e-06L427 1.52588e-05Z" fill="#F7F7F7"/>
<g filter="url(#filter0_d)">
<path fill-rule="evenodd" clip-rule="evenodd" d="M387.107 354.62C404.38 354.502 421.017 366.681 426.079 383.178L479.206 557.957L127.141 691.036L-124.718 24.7297L-24 -13.3409L-24 73L68.666 73C68.6186 79.2493 67.6013 85.65 66.5856 92.0408C64.6558 104.183 62.7317 116.289 67.4757 127.254C73.6089 141.394 88.0948 148.066 102.717 154.801C116.185 161.004 129.769 167.261 137.047 179.456C145.678 193.934 142.573 212.742 135.195 227.917C131.347 235.831 126.5 243.172 121.652 250.513C117.204 257.249 112.755 263.986 109.077 271.169C101.39 286.179 97.3466 304.649 104.936 319.697C111.739 333.199 125.897 340.709 139.901 348.139C155.318 356.318 170.549 364.398 175.58 380.263C179.92 393.855 174.778 407.4 169.55 421.175C166.315 429.697 163.047 438.307 161.97 447.07C158.723 473.517 179.043 500.718 205.324 505.049C231.605 509.38 259.6 490.227 265.041 464.149C265.362 462.616 265.626 461.045 265.891 459.469C266.874 453.621 267.87 447.703 271.807 443.44C278.591 436.168 290.412 437.558 299.87 440.652C300.907 440.991 301.953 441.344 303.005 441.699C311.547 444.583 320.515 447.61 328.843 444.588C339.449 440.778 344.483 428.532 345.64 417.305C346.056 413.26 346.135 409.169 346.212 405.085C346.351 397.833 346.489 390.601 348.522 383.682C353.395 367.128 369.834 354.739 387.107 354.62Z" fill="#74958A"/>
</g>
<path d="M427.079 383.178C422.017 366.681 405.379 354.502 388.107 354.62C370.834 354.739 354.395 367.128 349.522 383.682C346.343 394.499 347.797 406.078 346.64 417.305C345.483 428.532 340.449 440.778 329.843 444.588C320.489 447.982 310.328 443.745 300.87 440.652C291.412 437.558 279.591 436.168 272.807 443.44C267.808 448.852 267.552 456.933 266.041 464.149C260.6 490.227 232.605 509.38 206.324 505.049C180.043 500.718 159.723 473.517 162.97 447.07C165.787 424.144 183.604 402.264 176.58 380.263C166.978 349.985 120.227 348.061 105.936 319.697C98.3466 304.649 102.39 286.179 110.077 271.169C117.764 256.158 128.816 243.093 136.194 227.917C143.573 212.742 146.678 193.934 138.047 179.456C122.868 154.021 80.2581 154.419 68.4757 127.254C59.1812 105.771 75.4817 79.909 67.2748 57.9798C60.5734 40.0957 40.5859 31.883 23.3925 23.5768C6.19915 15.2707 -12.2787 0.957362 -10.5302 -18.0544L-123.718 24.7297L128.141 691.036L480.206 557.957L427.079 383.178Z" fill="#74958A"/>
<path d="M-40.937 -0.0907945C-26.3942 -9.76413 -5.2531 -3.0877 5.44611 10.7262C16.1453 24.54 18.3223 43.1987 17.0774 60.6282C15.8325 78.0577 11.5836 95.2038 11.0038 112.666C10.424 130.129 14.1427 148.791 26.3588 161.282C37.0549 172.211 52.4396 176.763 66.2434 183.393C80.0471 190.022 93.8429 201.091 95.0665 216.296C96.5393 234.634 79.2149 250.097 79.2072 268.482C79.1626 291.133 103.975 305.046 113.993 325.339C129.844 357.528 105.408 396.158 112.05 431.419C117.814 461.846 144.971 482.826 170.17 500.844C182.827 509.893 196.324 519.292 211.889 520.296C239.783 522.134 261.503 497.242 287.539 487.052C306.366 479.698 328.171 479.878 344.984 468.705C360.103 458.608 368.456 441.19 381.317 428.358C394.178 415.527 417.413 408.5 429.481 422.082L463.484 536.963L86.2906 648.605L-100.492 17.5363L-40.937 -0.0907945Z" fill="#FF5C5C"/>
<g filter="url(#filter1_d)">
<path fill-rule="evenodd" clip-rule="evenodd" d="M-27 -4.60824C-31.9242 -4.33322 -36.7094 -2.9028 -40.937 -0.090789L-100.492 17.5362L86.2907 648.605L463.484 536.963L429.481 422.082C417.413 408.5 394.178 415.527 381.317 428.358C376.258 433.405 371.897 439.162 367.547 444.903C360.838 453.759 354.156 462.579 344.984 468.705C334.842 475.444 322.884 478.053 310.859 480.677C302.948 482.402 295.009 484.134 287.539 487.052C278.096 490.748 269.221 496.378 260.413 501.964C244.936 511.782 229.666 521.467 211.889 520.296C196.324 519.292 182.827 509.893 170.17 500.844C144.971 482.826 117.814 461.846 112.05 431.419C109.141 415.977 112.193 399.888 115.211 383.977C119.084 363.558 122.902 343.431 113.993 325.339C110.132 317.518 104.074 310.644 98.0874 303.853C88.5414 293.024 79.1798 282.403 79.2072 268.482C79.2109 259.633 83.226 251.462 87.2261 243.32C91.537 234.546 95.8304 225.808 95.0665 216.296C93.8429 201.091 80.0471 190.022 66.2434 183.392C62.83 181.753 59.32 180.241 55.8082 178.728C52.1724 177.162 48.5346 175.594 45 173.884L45 174L-27 174L-27 -4.60824Z" fill="#FF5C5C"/>
</g>
<g filter="url(#filter2_d)">
<path d="M-14.5226 -92.9995C-24.5234 -38.2458 -14.1331 18.2749 14.6868 65.8921C27.1293 86.2636 43.1539 105.482 47.6675 128.92C53.1989 157.667 40.2843 187.631 45.8527 216.333C55.2342 264.619 112.782 293.211 119.458 341.946C122.531 364.366 113.946 386.566 105.47 407.553C96.9925 428.54 88.3258 450.651 91.1625 473.094C93.9991 495.537 112.892 517.702 135.427 515.568C149.464 514.236 161.599 504.162 175.714 503.282C199.171 501.885 218.74 526.36 242.108 523.739C265.949 521.071 276.774 493.676 291.628 474.815C300.438 463.874 311.717 455.177 324.538 449.437C337.359 443.697 351.358 441.076 365.387 441.791C379.408 442.755 393 447.031 405.048 454.266C417.096 461.501 427.257 471.49 434.697 483.413L452.319 553.645L85.1773 645.765L-95.4946 -74.304L-14.5226 -92.9995Z" fill="#FFC500"/>
</g>
<g filter="url(#filter3_d)">
<path fill-rule="evenodd" clip-rule="evenodd" d="M427.42 481.872C443.333 475.043 464.289 475.476 475.616 488.646L500.583 609.667L45.7823 686.573L-44.4994 152.67L48.7358 133.072C46.5869 141.986 43.99 150.845 41.4426 159.535C41.1633 160.488 40.8845 161.438 40.6071 162.387C31.6627 192.965 24.3645 227.458 39.6469 255.409C44.3236 263.982 50.9058 271.436 57.4533 278.85C66.4698 289.06 75.4206 299.196 79.2389 312.077C84.5892 330.118 78.7189 349.275 72.9313 368.163C66.3347 389.69 59.8455 410.868 70.201 429.64C77.9906 443.774 92.6706 450.996 107.548 458.316C118.969 463.935 130.507 469.611 139.132 478.515C147.987 487.657 153.065 499.461 158.146 511.27C160.141 515.906 162.136 520.543 164.36 525.02C172.249 540.902 185.927 556.573 203.661 556.689C219.582 556.79 231.365 544.927 243.216 532.995C254.642 521.491 266.131 509.924 281.453 508.955C292.504 508.238 302.488 513.353 312.557 518.512C320.397 522.529 328.289 526.572 336.777 527.91C353.936 530.604 370.889 522.034 384.802 511.593C388.47 508.841 392.059 505.949 395.648 503.057C405.676 494.979 415.702 486.902 427.42 481.872Z" fill="#08415C"/>
</g>
<path d="M475.616 488.646C464.289 475.476 443.333 475.043 427.42 481.872C411.508 488.702 398.716 501.151 384.802 511.593C370.889 522.034 353.936 530.604 336.777 527.91C317.386 524.853 301.109 507.68 281.453 508.955C250.24 510.93 234.931 556.888 203.661 556.689C185.927 556.573 172.249 540.902 164.36 525.02C156.471 509.139 151.463 491.246 139.132 478.515C119.272 458.012 83.9707 454.625 70.201 429.64C50.7601 394.397 90.6873 350.68 79.2389 312.077C72.6479 289.842 50.7637 275.787 39.6469 255.409C24.3645 227.458 31.6627 192.965 40.6071 162.387C49.5514 131.809 59.7971 98.9609 49.3675 68.8545C40.597 43.5365 18.8909 25.3536 2.49905 4.15545C-12.781 -15.8833 -23.6059 -38.954 -29.2515 -63.5133C-34.897 -88.0726 -35.2331 -113.554 -30.2372 -138.254L-91.9301 -127.822L45.7823 686.573L500.583 609.667L475.616 488.646Z" fill="#08415C"/>
<path fill-rule="evenodd" clip-rule="evenodd" d="M427 695L427 597L58 597L58 294L1.75283e-05 294L1.0753e-05 449L4.28372e-06 597L0 695L45 695L58 695L427 695Z" fill="#08415C"/>
</g>
<defs>
<filter id="filter0_d" x="-134.718" y="-28.3409" width="623.924" height="724.376" filterUnits="userSpaceOnUse" color-interpolation-filters="sRGB">
<feFlood flood-opacity="0" result="BackgroundImageFix"/>
<feColorMatrix in="SourceAlpha" type="matrix" values="0 0 0 0 0 0 0 0 0 0 0 0 0 0 0 0 0 0 127 0"/>
<feOffset dy="-5"/>
<feGaussianBlur stdDeviation="5"/>
<feColorMatrix type="matrix" values="0 0 0 0 0 0 0 0 0 0 0 0 0 0 0 0 0 0 0.25 0"/>
<feBlend mode="normal" in2="BackgroundImageFix" result="effect1_dropShadow"/>
<feBlend mode="normal" in="SourceGraphic" in2="effect1_dropShadow" result="shape"/>
</filter>
<filter id="filter1_d" x="-105.492" y="-16.6083" width="583.976" height="673.213" filterUnits="userSpaceOnUse" color-interpolation-filters="sRGB">
<feFlood flood-opacity="0" result="BackgroundImageFix"/>
<feColorMatrix in="SourceAlpha" type="matrix" values="0 0 0 0 0 0 0 0 0 0 0 0 0 0 0 0 0 0 127 0"/>
<feOffset dx="5" dy="-2"/>
<feGaussianBlur stdDeviation="5"/>
<feColorMatrix type="matrix" values="0 0 0 0 0 0 0 0 0 0 0 0 0 0 0 0 0 0 0.25 0"/>
<feBlend mode="normal" in2="BackgroundImageFix" result="effect1_dropShadow"/>
<feBlend mode="normal" in="SourceGraphic" in2="effect1_dropShadow" result="shape"/>
</filter>
<filter id="filter2_d" x="-100.495" y="-178.423" width="567.814" height="832.188" filterUnits="userSpaceOnUse" color-interpolation-filters="sRGB">
<feFlood flood-opacity="0" result="BackgroundImageFix"/>
<feColorMatrix in="SourceAlpha" type="matrix" values="0 0 0 0 0 0 0 0 0 0 0 0 0 0 0 0 0 0 127 0"/>
<feOffset dx="5" dy="-2"/>
<feGaussianBlur stdDeviation="5"/>
<feColorMatrix type="matrix" values="0 0 0 0 0 0 0 0 0 0 0 0 0 0 0 0 0 0 0.25 0"/>
<feBlend mode="normal" in2="BackgroundImageFix" result="effect1_dropShadow"/>
<feBlend mode="normal" in="SourceGraphic" in2="effect1_dropShadow" result="shape"/>
</filter>
<filter id="filter3_d" x="-49.4995" y="121.072" width="565.082" height="573.501" filterUnits="userSpaceOnUse" color-interpolation-filters="sRGB">
<feFlood flood-opacity="0" result="BackgroundImageFix"/>
<feColorMatrix in="SourceAlpha" type="matrix" values="0 0 0 0 0 0 0 0 0 0 0 0 0 0 0 0 0 0 127 0"/>
<feOffset dx="5" dy="-2"/>
<feGaussianBlur stdDeviation="5"/>
<feColorMatrix type="matrix" values="0 0 0 0 0 0 0 0 0 0 0 0 0 0 0 0 0 0 0.25 0"/>
<feBlend mode="normal" in2="BackgroundImageFix" result="effect1_dropShadow"/>
<feBlend mode="normal" in="SourceGraphic" in2="effect1_dropShadow" result="shape"/>
</filter>
<clipPath id="clip0">
<rect width="695" height="427" fill="white" transform="matrix(4.37114e-08 -1 -1 -4.37114e-08 427 695)"/>
</clipPath>
</defs>
</svg>
