<svg width="794" height="695" viewBox="0 0 794 695" fill="none" xmlns="http://www.w3.org/2000/svg">
<g clip-path="url(#clip0)">
<g clip-path="url(#clip1)">
<path d="M794 1.52588e-05L794 695L367 695L367 -3.40597e-06L794 1.52588e-05Z" fill="#F7F7F7"/>
<g filter="url(#filter0_d)">
<path fill-rule="evenodd" clip-rule="evenodd" d="M754.107 354.62C771.38 354.502 788.017 366.681 793.079 383.178L846.206 557.957L494.141 691.036L242.282 24.7297L343 -13.3409L343 73L435.666 73C435.619 79.2493 434.601 85.65 433.586 92.0408C431.656 104.183 429.732 116.289 434.476 127.254C440.609 141.394 455.095 148.066 469.717 154.801C483.185 161.004 496.769 167.261 504.047 179.456C512.678 193.934 509.573 212.742 502.195 227.917C498.347 235.831 493.5 243.172 488.652 250.513C484.204 257.249 479.755 263.986 476.077 271.169C468.39 286.179 464.347 304.649 471.936 319.697C478.739 333.199 492.897 340.709 506.901 348.139C522.318 356.318 537.549 364.398 542.58 380.263C546.92 393.855 541.778 407.4 536.55 421.175C533.315 429.697 530.047 438.307 528.97 447.07C525.723 473.517 546.043 500.718 572.324 505.049C598.605 509.38 626.6 490.227 632.041 464.149C632.362 462.616 632.626 461.045 632.891 459.469C633.874 453.621 634.87 447.703 638.807 443.44C645.591 436.168 657.412 437.558 666.87 440.652C667.907 440.991 668.953 441.344 670.005 441.699C678.547 444.583 687.515 447.61 695.843 444.588C706.449 440.778 711.483 428.532 712.64 417.305C713.056 413.26 713.135 409.169 713.212 405.085C713.351 397.833 713.489 390.601 715.522 383.682C720.395 367.128 736.834 354.739 754.107 354.62Z" fill="#74958A"/>
</g>
<path d="M794.079 383.178C789.017 366.681 772.379 354.502 755.107 354.62C737.834 354.739 721.395 367.128 716.522 383.682C713.343 394.499 714.797 406.078 713.64 417.305C712.483 428.532 707.449 440.778 696.843 444.588C687.489 447.982 677.328 443.745 667.87 440.652C658.412 437.558 646.591 436.168 639.807 443.44C634.808 448.852 634.552 456.933 633.041 464.149C627.6 490.227 599.605 509.38 573.324 505.049C547.043 500.718 526.723 473.517 529.97 447.07C532.787 424.144 550.604 402.264 543.58 380.263C533.978 349.985 487.227 348.061 472.936 319.697C465.347 304.649 469.39 286.179 477.077 271.169C484.764 256.158 495.816 243.093 503.194 227.917C510.573 212.742 513.678 193.934 505.047 179.456C489.868 154.022 447.258 154.419 435.476 127.254C426.181 105.771 442.482 79.909 434.275 57.9798C427.573 40.0957 407.586 31.883 390.393 23.5768C373.199 15.2707 354.721 0.957358 356.47 -18.0544L243.282 24.7297L495.141 691.036L847.206 557.957L794.079 383.178Z" fill="#74958A"/>
<path d="M326.063 -0.09079C340.606 -9.76413 361.747 -3.08769 372.446 10.7262C383.145 24.54 385.322 43.1987 384.077 60.6282C382.833 78.0577 378.584 95.2038 378.004 112.666C377.424 130.129 381.143 148.791 393.359 161.282C404.055 172.211 419.44 176.763 433.243 183.393C447.047 190.022 460.843 201.091 462.066 216.296C463.539 234.634 446.215 250.097 446.207 268.482C446.163 291.133 470.975 305.046 480.993 325.339C496.844 357.528 472.408 396.158 479.05 431.419C484.814 461.846 511.971 482.826 537.17 500.844C549.827 509.893 563.324 519.292 578.889 520.296C606.783 522.134 628.503 497.242 654.539 487.052C673.366 479.698 695.171 479.878 711.984 468.705C727.103 458.608 735.456 441.19 748.317 428.358C761.178 415.527 784.413 408.5 796.481 422.082L830.484 536.963L453.291 648.605L266.508 17.5363L326.063 -0.09079Z" fill="#FF5C5C"/>
<g filter="url(#filter1_d)">
<path fill-rule="evenodd" clip-rule="evenodd" d="M340 -4.60827C335.076 -4.33325 330.291 -2.90283 326.063 -0.0908195L266.508 17.5363L453.291 648.605L830.484 536.964L796.481 422.082C784.413 408.5 761.178 415.527 748.317 428.358C743.258 433.405 738.897 439.162 734.547 444.903C727.838 453.759 721.156 462.579 711.984 468.705C701.842 475.444 689.884 478.053 677.859 480.677C669.948 482.402 662.009 484.134 654.539 487.052C645.096 490.748 636.221 496.378 627.413 501.964C611.936 511.782 596.666 521.467 578.889 520.296C563.324 519.292 549.827 509.893 537.17 500.844C511.971 482.826 484.814 461.846 479.05 431.419C476.141 415.977 479.193 399.888 482.211 383.977C486.084 363.558 489.902 343.431 480.993 325.339C477.132 317.518 471.074 310.644 465.087 303.853C455.541 293.024 446.18 282.403 446.207 268.482C446.211 259.633 450.226 251.461 454.226 243.32C458.537 234.546 462.83 225.808 462.066 216.296C460.843 201.091 447.047 190.022 433.243 183.393C429.83 181.753 426.32 180.241 422.808 178.728C419.172 177.162 415.535 175.594 412 173.884L412 174L340 174L340 -4.60827Z" fill="#FF5C5C"/>
</g>
<g filter="url(#filter2_d)">
<path d="M352.477 -92.9995C342.477 -38.2458 352.867 18.2749 381.687 65.8921C394.129 86.2636 410.154 105.482 414.668 128.92C420.199 157.667 407.284 187.631 412.853 216.333C422.234 264.619 479.782 293.211 486.458 341.946C489.531 364.366 480.946 386.566 472.47 407.553C463.993 428.54 455.326 450.651 458.162 473.094C460.999 495.537 479.892 517.702 502.427 515.568C516.464 514.236 528.599 504.162 542.714 503.282C566.171 501.885 585.74 526.36 609.108 523.739C632.949 521.071 643.774 493.676 658.628 474.815C667.438 463.874 678.717 455.177 691.538 449.437C704.359 443.697 718.358 441.076 732.387 441.791C746.408 442.755 760 447.031 772.048 454.266C784.096 461.501 794.257 471.49 801.697 483.413L819.319 553.645L452.177 645.765L271.505 -74.304L352.477 -92.9995Z" fill="#FFC500"/>
</g>
<g filter="url(#filter3_d)">
<path fill-rule="evenodd" clip-rule="evenodd" d="M794.42 481.872C810.333 475.043 831.289 475.476 842.616 488.646L867.583 609.667L412.782 686.573L322.501 152.67L415.736 133.072C413.587 141.986 410.99 150.845 408.443 159.535C408.163 160.488 407.885 161.438 407.607 162.387C398.663 192.965 391.364 227.458 406.647 255.409C411.324 263.982 417.906 271.436 424.453 278.85C433.47 289.06 442.421 299.196 446.239 312.077C451.589 330.118 445.719 349.275 439.931 368.163C433.335 389.69 426.846 410.868 437.201 429.64C444.991 443.774 459.671 450.996 474.548 458.316C485.969 463.935 497.507 469.611 506.132 478.515C514.987 487.657 520.065 499.461 525.146 511.27C527.141 515.906 529.136 520.543 531.36 525.02C539.249 540.902 552.927 556.573 570.661 556.689C586.582 556.79 598.365 544.927 610.216 532.995C621.642 521.492 633.131 509.924 648.453 508.955C659.504 508.238 669.488 513.353 679.557 518.512C687.397 522.529 695.289 526.572 703.777 527.91C720.936 530.604 737.889 522.034 751.802 511.593C755.47 508.841 759.059 505.949 762.648 503.057C772.676 494.979 782.702 486.902 794.42 481.872Z" fill="#08415C"/>
</g>
<path d="M842.616 488.646C831.289 475.476 810.333 475.043 794.42 481.872C778.508 488.702 765.716 501.151 751.802 511.593C737.889 522.034 720.936 530.604 703.777 527.91C684.386 524.853 668.109 507.68 648.453 508.955C617.24 510.93 601.931 556.888 570.661 556.689C552.927 556.573 539.249 540.902 531.36 525.02C523.471 509.139 518.463 491.246 506.132 478.515C486.272 458.012 450.971 454.625 437.201 429.64C417.76 394.397 457.687 350.68 446.239 312.077C439.648 289.842 417.764 275.787 406.647 255.409C391.364 227.458 398.663 192.965 407.607 162.387C416.551 131.809 426.797 98.9609 416.368 68.8545C407.597 43.5365 385.891 25.3536 369.499 4.15546C354.219 -15.8833 343.394 -38.954 337.749 -63.5133C332.103 -88.0726 331.767 -113.554 336.763 -138.254L275.07 -127.822L412.782 686.573L867.583 609.667L842.616 488.646Z" fill="#08415C"/>
<path fill-rule="evenodd" clip-rule="evenodd" d="M794 695L794 597L425 597L425 294L367 294L367 449L367 597L367 695L412 695L425 695L794 695Z" fill="#08415C"/>
</g>
<rect x="-0.00012207" width="367" height="695" fill="#08415C"/>
<rect x="153" y="449" width="291" height="246" fill="#08415C"/>
<rect x="316" y="305" width="101" height="218" fill="#08415C"/>
<rect x="342" y="35" width="47" height="477" fill="#08415C"/>
<rect x="366" y="3" width="2" height="475" fill="#08415C"/>
</g>
<defs>
<filter id="filter0_d" x="232.282" y="-28.3409" width="623.924" height="724.376" filterUnits="userSpaceOnUse" color-interpolation-filters="sRGB">
<feFlood flood-opacity="0" result="BackgroundImageFix"/>
<feColorMatrix in="SourceAlpha" type="matrix" values="0 0 0 0 0 0 0 0 0 0 0 0 0 0 0 0 0 0 127 0"/>
<feOffset dy="-5"/>
<feGaussianBlur stdDeviation="5"/>
<feColorMatrix type="matrix" values="0 0 0 0 0 0 0 0 0 0 0 0 0 0 0 0 0 0 0.25 0"/>
<feBlend mode="normal" in2="BackgroundImageFix" result="effect1_dropShadow"/>
<feBlend mode="normal" in="SourceGraphic" in2="effect1_dropShadow" result="shape"/>
</filter>
<filter id="filter1_d" x="261.508" y="-16.6083" width="583.976" height="673.213" filterUnits="userSpaceOnUse" color-interpolation-filters="sRGB">
<feFlood flood-opacity="0" result="BackgroundImageFix"/>
<feColorMatrix in="SourceAlpha" type="matrix" values="0 0 0 0 0 0 0 0 0 0 0 0 0 0 0 0 0 0 127 0"/>
<feOffset dx="5" dy="-2"/>
<feGaussianBlur stdDeviation="5"/>
<feColorMatrix type="matrix" values="0 0 0 0 0 0 0 0 0 0 0 0 0 0 0 0 0 0 0.25 0"/>
<feBlend mode="normal" in2="BackgroundImageFix" result="effect1_dropShadow"/>
<feBlend mode="normal" in="SourceGraphic" in2="effect1_dropShadow" result="shape"/>
</filter>
<filter id="filter2_d" x="266.505" y="-178.423" width="567.814" height="832.188" filterUnits="userSpaceOnUse" color-interpolation-filters="sRGB">
<feFlood flood-opacity="0" result="BackgroundImageFix"/>
<feColorMatrix in="SourceAlpha" type="matrix" values="0 0 0 0 0 0 0 0 0 0 0 0 0 0 0 0 0 0 127 0"/>
<feOffset dx="5" dy="-2"/>
<feGaussianBlur stdDeviation="5"/>
<feColorMatrix type="matrix" values="0 0 0 0 0 0 0 0 0 0 0 0 0 0 0 0 0 0 0.25 0"/>
<feBlend mode="normal" in2="BackgroundImageFix" result="effect1_dropShadow"/>
<feBlend mode="normal" in="SourceGraphic" in2="effect1_dropShadow" result="shape"/>
</filter>
<filter id="filter3_d" x="317.5" y="121.072" width="565.082" height="573.501" filterUnits="userSpaceOnUse" color-interpolation-filters="sRGB">
<feFlood flood-opacity="0" result="BackgroundImageFix"/>
<feColorMatrix in="SourceAlpha" type="matrix" values="0 0 0 0 0 0 0 0 0 0 0 0 0 0 0 0 0 0 127 0"/>
<feOffset dx="5" dy="-2"/>
<feGaussianBlur stdDeviation="5"/>
<feColorMatrix type="matrix" values="0 0 0 0 0 0 0 0 0 0 0 0 0 0 0 0 0 0 0.25 0"/>
<feBlend mode="normal" in2="BackgroundImageFix" result="effect1_dropShadow"/>
<feBlend mode="normal" in="SourceGraphic" in2="effect1_dropShadow" result="shape"/>
</filter>
<clipPath id="clip0">
<rect width="695" height="794" fill="white" transform="matrix(-4.37114e-08 -1 -1 4.37114e-08 794 695)"/>
</clipPath>
<clipPath id="clip1">
<rect width="695" height="427" fill="white" transform="matrix(4.37114e-08 -1 -1 -4.37114e-08 794 695)"/>
</clipPath>
</defs>
</svg>
